<?xml version="1.0" encoding="UTF-8" standalone="no"?>
<!-- Created with Inkscape (http://www.inkscape.org/) -->
<svg
   xmlns:svg="http://www.w3.org/2000/svg"
   xmlns="http://www.w3.org/2000/svg"
   version="1.0"
   width="270.16"
   height="77.400002"
   id="svg2637">
  <defs
     id="defs2639" />
  <g
     transform="translate(-99.63179,-32.59263)"
     id="layer1">
    <g
       transform="matrix(1.25,0,0,-1.25,-217.65071,884.58326)"
       id="g2624">
      <path
         d="M 261.117,675.498 L 298.368,675.498 L 298.368,644.43 L 279.743,625.805 L 261.117,644.43 L 261.117,675.498"
         id="path89"
         style="fill:#ffffff;fill-opacity:1;fill-rule:nonzero;stroke:none" />
      <path
         d="M 298.462,644.393 L 279.743,625.674 L 279.649,625.899 L 279.649,663.337 L 298.368,644.617 L 298.462,644.393"
         id="path91"
         style="fill:#fab20a;fill-opacity:1;fill-rule:nonzero;stroke:none" />
      <path
         d="M 261.024,675.591 L 298.462,675.591 L 298.462,644.393 L 279.743,663.112 L 279.743,625.674 L 261.024,644.393 L 261.024,675.591"
         id="path93"
         style="fill:#0cad96;fill-opacity:1;fill-rule:nonzero;stroke:none" />
      <path
         d="M 322.14,658.769 L 317.817,658.769 L 319.888,668.135 L 319.948,668.135 L 322.14,658.769 z M 315.685,650.633 L 316.916,655.437 L 323.1,655.437 L 324.301,650.633 L 329.074,650.633 L 323.191,672.308 L 317.216,672.308 L 311.213,650.633 L 315.685,650.633"
         id="path95"
         style="fill:#868484;fill-opacity:1;fill-rule:nonzero;stroke:none" />
      <path
         d="M 340.971,650.633 C 342.892,650.633 347.665,650.873 347.665,656.367 C 347.665,659.339 346.825,661.411 343.613,661.861 L 343.613,661.921 C 346.074,662.401 347.304,664.202 347.304,666.694 C 347.304,671.317 344.453,672.308 341.001,672.308 L 332.955,672.308 L 332.955,650.633 L 340.971,650.633 z M 337.488,668.975 L 340.28,668.975 C 341.811,668.975 342.892,667.805 342.892,666.214 C 342.892,664.112 341.51,663.452 340.52,663.452 L 337.488,663.452 L 337.488,668.975 z M 337.488,660.119 L 340.13,660.119 C 342.411,660.119 343.132,658.949 343.132,657.028 C 343.132,653.995 340.971,653.966 340.01,653.966 L 337.488,653.966 L 337.488,660.119"
         id="path97"
         style="fill:#868484;fill-opacity:1;fill-rule:nonzero;stroke:none" />
      <path
         d="M 357.189,650.633 L 357.189,666.484 L 357.249,666.484 L 363.163,650.633 L 369.138,650.633 L 369.138,672.308 L 364.905,672.308 L 364.905,657.298 L 364.844,657.298 L 359.08,672.308 L 352.957,672.308 L 352.957,650.633 L 357.189,650.633"
         id="path99"
         style="fill:#868484;fill-opacity:1;fill-rule:nonzero;stroke:none" />
      <path
         d="M 376.252,660.206 L 379.16,663.114 L 376.252,666.014 L 373.352,663.114 L 376.252,660.206"
         id="path101"
         style="fill:#868484;fill-opacity:1;fill-rule:nonzero;stroke:none" />
      <path
         d="M 391.543,658.769 L 387.219,658.769 L 389.291,668.135 L 389.351,668.135 L 391.543,658.769 z M 385.088,650.633 L 386.319,655.437 L 392.503,655.437 L 393.703,650.633 L 398.477,650.633 L 392.593,672.308 L 386.619,672.308 L 380.615,650.633 L 385.088,650.633"
         id="path103"
         style="fill:#868484;fill-opacity:1;fill-rule:nonzero;stroke:none" />
      <path
         d="M 406.62,650.633 L 406.62,667.354 L 406.68,667.354 L 410.643,650.633 L 414.966,650.633 L 419.139,667.354 L 419.199,667.354 L 419.199,650.633 L 423.612,650.633 L 423.612,672.308 L 416.557,672.308 L 412.955,657.568 L 412.895,657.568 L 409.502,672.308 L 402.207,672.308 L 402.207,650.633 L 406.62,650.633"
         id="path105"
         style="fill:#868484;fill-opacity:1;fill-rule:nonzero;stroke:none" />
      <path
         d="M 434.092,659.609 L 435.263,659.609 C 438.745,659.609 438.506,657.418 438.506,654.836 C 438.506,653.425 438.385,651.954 438.986,650.633 L 443.429,650.633 C 443.008,651.534 442.919,655.617 442.919,656.997 C 442.919,660.9 439.976,661.14 438.986,661.26 L 438.986,661.32 C 441.928,661.801 443.008,663.872 443.008,666.634 C 443.008,670.327 441.027,672.308 437.935,672.308 L 429.559,672.308 L 429.559,650.633 L 434.092,650.633 L 434.092,659.609 z M 434.092,668.975 L 436.104,668.975 C 437.545,668.975 438.415,668.195 438.415,666.124 C 438.415,664.743 437.905,662.941 436.104,662.941 L 434.092,662.941 L 434.092,668.975"
         id="path107"
         style="fill:#868484;fill-opacity:1;fill-rule:nonzero;stroke:none" />
      <path
         d="M 455.281,650.273 C 462.756,650.273 462.756,655.797 462.756,661.471 C 462.756,667.205 462.756,672.668 455.281,672.668 C 447.805,672.668 447.805,667.205 447.805,661.471 C 447.805,655.797 447.805,650.273 455.281,650.273 z M 455.281,653.515 C 452.729,653.515 452.399,655.916 452.399,661.471 C 452.399,667.024 452.729,669.426 455.281,669.426 C 457.833,669.426 458.163,667.024 458.163,661.471 C 458.163,655.916 457.833,653.515 455.281,653.515"
         id="path109"
         style="fill:#868484;fill-opacity:1;fill-rule:nonzero;stroke:none" />
    </g>
  </g>
</svg>
