<?xml version="1.0" encoding="UTF-8" standalone="no"?>
<!-- Generator: Adobe Illustrator 12.0.0, SVG Export Plug-In . SVG Version: 6.00 Build 51448)  -->
<svg
   xmlns:dc="http://purl.org/dc/elements/1.1/"
   xmlns:cc="http://web.resource.org/cc/"
   xmlns:rdf="http://www.w3.org/1999/02/22-rdf-syntax-ns#"
   xmlns:svg="http://www.w3.org/2000/svg"
   xmlns="http://www.w3.org/2000/svg"
   xmlns:sodipodi="http://sodipodi.sourceforge.net/DTD/sodipodi-0.dtd"
   xmlns:inkscape="http://www.inkscape.org/namespaces/inkscape"
   version="1.0"
   id="Layer_1"
   width="187.08716"
   height="25.298008"
   viewBox="0 0 192.756 192.756"
   overflow="visible"
   enable-background="new 0 0 192.756 192.756"
   xml:space="preserve"
   sodipodi:version="0.32"
   inkscape:version="0.45.1"
   sodipodi:docname="Delhaize_Group[1].svg"
   inkscape:output_extension="org.inkscape.output.svg.inkscape"
   sodipodi:docbase="C:\Users\Virgile"><metadata
   id="metadata5973"><rdf:RDF><cc:Work
       rdf:about=""><dc:format>image/svg+xml</dc:format><dc:type
         rdf:resource="http://purl.org/dc/dcmitype/StillImage" /></cc:Work></rdf:RDF></metadata><defs
   id="defs5971" /><sodipodi:namedview
   inkscape:window-height="1000"
   inkscape:window-width="1400"
   inkscape:pageshadow="2"
   inkscape:pageopacity="0.0"
   guidetolerance="10.0"
   gridtolerance="10.0"
   objecttolerance="10.0"
   borderopacity="1.0"
   bordercolor="#666666"
   pagecolor="#ffffff"
   id="base"
   inkscape:zoom="3.9116812"
   inkscape:cx="96.377998"
   inkscape:cy="35.023304"
   inkscape:window-x="-8"
   inkscape:window-y="-8"
   inkscape:current-layer="Layer_1" />

<g
   id="g5938"
   transform="matrix(7.6194142,0,0,7.6194142,-637.79257,-638.97337)">
	
	<path
   clip-rule="evenodd"
   d="M 104.447,86.737 L 105.549,86.017 L 106.143,93.856 L 121.906,93.856 L 121.906,91.864 L 108.473,91.864 C 108.303,91.779 108.092,89.618 107.922,89.195 C 107.922,88.898 107.879,88.602 107.964,88.347 C 108.049,88.093 108.6,84.957 108.685,84.872 L 108.77,84.83 L 124.872,84.83 C 124.915,84.872 125.042,84.957 125.042,85.041 C 125.042,86.185 125,87.499 125.042,88.601 C 124.83,88.559 122.415,86.355 122.415,86.355 C 122.415,86.355 110.762,86.397 110.423,86.355 C 109.999,87.033 109.83,87.796 109.914,88.644 C 109.872,89.11 110.041,89.534 110.169,89.957 C 110.889,89.999 122.584,89.915 122.796,89.999 C 122.796,90.083 124.703,91.355 124.703,91.355 C 124.66,91.991 124.745,96.779 124.745,96.779 C 124.745,97.415 126.694,104.237 126.736,104.618 L 125.423,108.686 L 119.66,108.686 L 120.423,106.651 L 122.16,106.227 L 123.05,104.532 L 120.593,102.542 L 117.287,106.271 L 116.991,108.687 L 110.846,108.687 L 111.27,106.695 L 113.049,106.228 L 117.371,98.982 L 111.311,101.525 L 105.802,101.568 L 104.235,104.406 L 105.845,107.076 L 105.463,108.687 L 99.108,108.687 L 99.574,106.906 L 101.269,106.058 L 99.574,102.542 L 95.972,106.905 L 96.523,108.686 L 90.93,108.686 C 90.93,108.686 91.354,106.991 91.439,106.737 L 92.456,106.016 L 94.998,102.541 L 93.938,99.107 C 93.641,99.107 92.201,100.041 92.201,100.041 L 94.87,92.964 L 94.87,92.964 C 94.912,92.667 95.167,92.37 94.912,92.116 L 93.725,90.379 L 94.53,89.489 C 94.53,89.489 95.97,90.591 96.31,90.803 C 96.606,90.718 97.623,89.405 97.623,89.278 L 97.538,89.151 C 96.479,89.151 93.004,89.109 93.004,89.109 C 92.962,89.193 92.877,89.871 92.835,89.914 L 91.82,90 L 91.947,88.263 L 97.244,88.263 L 97.202,87.627 L 94.363,88.008 L 93.558,85.508 L 97.117,85.508 L 97.711,84.745 L 102.287,84.703 C 102.287,84.703 104.999,83.771 105.253,83.728 C 105.252,83.729 104.447,86.695 104.447,86.737 L 104.447,86.737 z "
   id="path5942"
   style="fill:#040506;fill-rule:evenodd" />
	<polygon
   clip-rule="evenodd"
   points="30.208,84.703 30.208,105.721 34.361,105.721 34.361,108.688 26.479,108.688 26.479,84.703 30.208,84.703 "
   id="polygon5944"
   style="fill:#ed1c24;fill-rule:evenodd" />
	<polygon
   clip-rule="evenodd"
   points="39.064,94.491 42.242,94.491 42.242,84.661 45.971,84.661 45.971,108.688 42.37,108.688 42.37,98.051 39.276,98.051 39.276,108.688 35.42,108.688 35.42,84.661 39.064,84.661 39.064,94.491 "
   id="polygon5946"
   style="fill:#ed1c24;fill-rule:evenodd" />
	<polygon
   clip-rule="evenodd"
   points="76.607,84.661 76.607,87.119 69.87,105.891 76.692,105.891 76.692,108.688 66.522,108.688 66.522,104.619 72.709,87.627 66.692,87.627 66.692,84.661 76.607,84.661 "
   id="polygon5948"
   style="fill:#ed1c24;fill-rule:evenodd" />
	<path
   clip-rule="evenodd"
   d="M 87.455,84.661 L 87.455,87.585 L 82.624,87.585 L 82.624,94.365 L 87.54,94.365 C 87.54,94.365 87.54,97.841 87.54,97.882 L 82.667,97.882 L 82.667,105.892 L 87.794,105.892 L 87.794,108.689 L 78.811,108.689 L 78.811,84.661 L 87.455,84.661 L 87.455,84.661 z "
   id="path5950"
   style="fill:#ed1c24;fill-rule:evenodd" />
	<path
   clip-rule="evenodd"
   d="M 23.979,84.661 L 23.979,87.585 L 19.148,87.585 L 19.148,94.365 L 24.021,94.365 C 24.021,94.365 24.021,97.841 24.021,97.882 L 19.148,97.882 L 19.148,105.892 L 24.318,105.892 L 24.318,108.689 L 15.335,108.689 L 15.335,84.661 L 23.979,84.661 L 23.979,84.661 z "
   id="path5952"
   style="fill:#ed1c24;fill-rule:evenodd" />
	<polygon
   clip-rule="evenodd"
   points="60.929,84.661 64.404,84.661 64.404,108.688 60.929,108.688 60.929,84.661 "
   id="polygon5954"
   style="fill:#ed1c24;fill-rule:evenodd" />
	<path
   clip-rule="evenodd"
   d="M 10.25,84.703 C 11.437,84.787 12.538,85.847 12.75,87.119 L 12.75,105.932 C 12.623,108.391 10.716,108.772 9.487,108.688 L 2.834,108.688 L 2.834,84.703 L 10.25,84.703 L 10.25,84.703 z M 8.852,87.5 L 6.521,87.5 L 6.521,105.848 C 6.521,105.848 7.665,105.848 8.047,105.848 C 8.301,105.805 8.725,105.932 8.979,105.721 C 9.191,105.594 9.275,105.381 9.36,105.127 L 9.36,88.051 C 9.36,87.754 9.191,87.584 8.852,87.5 L 8.852,87.5 z "
   id="path5956"
   style="fill:#ed1c24;fill-rule:evenodd" />
	<path
   clip-rule="evenodd"
   d="M 55.505,84.661 L 59.869,108.688 L 56.31,108.688 L 55.039,103.815 L 52.073,103.815 L 51.098,108.688 L 47.581,108.688 L 51.394,84.661 L 55.505,84.661 L 55.505,84.661 z M 53.641,93.305 L 52.327,100.551 L 54.954,100.551 L 53.641,93.305 L 53.641,93.305 z "
   id="path5958"
   style="fill:#ed1c24;fill-rule:evenodd" />
	<path
   clip-rule="evenodd"
   d="M 164.279,105.213 C 164.279,110.297 154.702,110.297 154.702,105.213 L 154.702,87.923 C 154.702,82.839 164.279,82.839 164.279,87.923 L 164.279,105.213 L 164.279,105.213 z M 158.517,87.881 C 158.517,87.881 158.517,104.873 158.517,105 C 158.517,105.764 160.593,105.805 160.593,105 L 160.593,87.839 C 160.593,86.864 158.517,86.779 158.517,87.881 L 158.517,87.881 z "
   id="path5960"
   style="fill:#ed1c24;fill-rule:evenodd" />
	<path
   clip-rule="evenodd"
   d="M 177.203,84.534 L 177.203,105.213 C 177.203,110.297 167.627,110.297 167.627,105.213 L 167.627,84.534 L 171.44,84.534 C 171.44,84.534 171.397,104.873 171.44,105 C 171.44,105.764 173.516,105.805 173.516,105 L 173.516,84.534 L 177.203,84.534 L 177.203,84.534 z "
   id="path5962"
   style="fill:#ed1c24;fill-rule:evenodd" />
	<path
   clip-rule="evenodd"
   d="M 180.296,84.534 L 185.339,84.534 C 185.339,84.534 189.661,84.576 189.788,88.644 C 189.915,92.712 189.915,94.788 189.915,94.788 C 189.915,94.788 190.339,100 184.152,99.322 L 184.152,108.687 L 180.296,108.687 L 180.296,84.534 L 180.296,84.534 z M 186.102,88.771 C 186.102,87.415 185.169,87.458 185.169,87.458 C 184.279,87.458 184.025,87.458 184.025,87.458 L 184.025,96.399 L 185.169,96.399 C 185.169,96.399 186.102,96.399 186.102,95.085 C 186.102,93.729 186.102,88.771 186.102,88.771 L 186.102,88.771 z "
   id="path5964"
   style="fill:#ed1c24;fill-rule:evenodd" />
	<path
   clip-rule="evenodd"
   d="M 147.541,88.771 C 147.541,87.458 146.609,87.458 146.609,87.458 C 145.719,87.458 145.464,87.458 145.464,87.458 L 145.464,94.407 L 146.609,94.407 C 146.609,94.407 147.541,94.407 147.541,93.094 C 147.541,91.737 147.541,88.771 147.541,88.771 L 147.541,88.771 z M 141.778,84.576 L 147.329,84.576 C 147.329,84.576 151.27,84.407 151.27,88.432 C 151.27,92.5 151.27,92.839 151.27,92.839 C 151.27,92.839 151.397,95.635 147.837,95.635 C 147.837,95.635 151.312,95.805 151.312,98.855 C 151.312,98.855 151.524,108.263 151.99,108.687 L 148.219,108.687 C 148.219,108.687 147.456,103.134 147.71,98.941 C 147.71,98.941 147.795,97.33 145.464,97.416 L 145.464,108.687 L 141.777,108.687 L 141.777,84.534 L 141.777,84.576 L 141.778,84.576 z "
   id="path5966"
   style="fill:#ed1c24;fill-rule:evenodd" />
	<path
   clip-rule="evenodd"
   d="M 133.389,96.568 L 133.389,99.492 L 134.872,99.492 L 134.872,105 C 134.787,105.381 134.787,105.678 134.575,105.891 C 134.151,106.188 133.6,106.145 133.092,105.932 C 132.88,105.764 132.753,105.508 132.753,105.254 L 132.753,87.754 C 132.753,86.779 133.643,86.906 133.643,86.906 C 134.364,86.906 134.745,87.118 134.745,87.499 L 134.745,93.262 L 138.39,93.262 L 138.39,87.542 C 138.39,83.813 133.56,84.024 133.56,84.024 C 130,84.024 129.026,86.905 129.026,87.838 L 129.026,105.72 C 129.11,106.228 129.28,106.695 129.534,107.118 C 130.085,108.136 131.102,109.067 133.137,109.024 C 135.552,109.024 136.654,107.415 136.654,107.032 L 136.654,108.686 L 138.561,108.686 L 138.561,96.566 L 133.389,96.566 L 133.389,96.568 z "
   id="path5968"
   style="fill:#ed1c24;fill-rule:evenodd" />
</g></svg>