<?xml version="1.0" standalone="no"?><!DOCTYPE svg PUBLIC "-//W3C//DTD SVG 1.1//EN" "http://www.w3.org/Graphics/SVG/1.1/DTD/svg11.dtd"><svg id="logo-idweaver-Page%201" viewBox="0 0 200 84" style="background-color:#ffffff00" version="1.1" xmlns="http://www.w3.org/2000/svg" xmlns:xlink="http://www.w3.org/1999/xlink" xml:space="preserve" x="0px" y="0px" width="200px" height="84px"><g id="Layer%201"><g><g><g><path d="M 2.6677 60.8604 C 3.8326 60.8918 5.0044 60.7609 6.1531 60.482 C 7.176 60.2349 7.9645 60.0957 8.5496 60.0593 C 8.7627 55.2407 10.0445 49.8643 12.3623 44.0723 C 14.3629 39.4606 16.3297 34.8994 18.2165 30.496 C 17.4724 30.4094 16.6768 30.2124 15.8431 29.9071 C 14.8574 29.548 13.9683 29.3518 13.2013 29.3239 C 12.9941 29.3239 11.7509 29.8277 7.7375 39.7751 C 3.908 49.3731 1.3068 55.5328 0 58.0977 L 2.6677 60.8604 Z" fill="#98bf00"/></g><g><path d="M 18.2201 14.4284 C 16.8205 14.4284 15.6111 14.9031 14.5228 15.8798 C 13.3972 16.8894 12.8711 18.1166 12.9147 19.6317 C 12.9658 21.3041 14.7596 22.2139 18.2467 22.335 C 19.488 22.3771 20.8483 22.2901 22.2953 22.0759 L 22.1736 18.0559 C 21.7189 17.255 21.2145 16.4266 20.673 15.5921 C 20.1896 14.8488 19.4512 14.4691 18.4159 14.4317 C 18.3515 14.4296 18.2855 14.4284 18.2201 14.4284 Z" fill="#98bf00"/></g></g><g><path d="M 31.0721 26.0451 L 28.9539 28.8064 C 26.1277 32.4911 23.288 36.1932 20.4326 39.9083 C 16.6018 45.3055 14.7046 49.7313 14.8034 53.0506 C 14.8687 55.3262 15.4657 57.2366 16.5783 58.729 C 17.8491 60.5299 19.5947 61.4397 21.9212 61.5198 C 21.9644 61.5211 22.0099 61.5219 22.0564 61.5219 C 22.0566 61.5219 22.0571 61.5219 22.0573 61.5219 C 23.2357 61.5215 25.0546 61.0881 27.4631 60.2328 C 30.4382 59.1938 32.7747 57.9696 34.4094 56.5938 L 34.7139 56.3376 L 34.9905 56.6235 C 35.9828 57.6477 36.8831 58.5558 37.743 59.3995 C 38.8049 60.4089 39.8344 60.9402 40.7986 60.9745 C 41.6946 61.0025 42.5459 60.8608 43.3231 60.5444 C 44.0298 60.2539 44.6907 60.0853 45.2917 60.0428 L 45.1006 53.6587 C 45.0691 52.6407 44.5825 52.3531 44.219 52.2259 C 43.5806 52.0011 42.812 51.4351 42.7741 50.0151 C 42.7542 49.383 43.3008 46.4277 48.2583 28.1644 C 52.8022 11.4308 53.7331 7.135 53.7138 6.4779 L 53.5258 0.1434 L 49.3599 0 C 46.2878 1.4946 44.1604 3.1286 43.0338 4.8595 L 42.812 12.5742 C 42.5195 16.6281 41.8547 19.8246 40.8354 22.0931 C 39.3696 25.2153 37.1205 26.7479 34.1377 26.6417 C 33.2083 26.6093 32.1782 26.4087 31.0721 26.0451 ZM 25.1811 54.395 C 25.086 54.3784 25.0074 54.3937 24.9202 54.3904 C 24.0334 54.364 23.4826 54.1198 23.238 53.6438 C 23.0718 53.3137 22.9262 52.9733 22.8033 52.6283 L 22.779 52.4994 L 22.6903 49.4689 L 22.7349 49.3764 C 24.7246 45.2489 28.0455 40.723 32.6056 35.9249 L 32.843 35.6751 L 33.1375 35.855 C 35.4756 37.2852 36.6312 38.6252 36.6702 39.9521 C 36.7313 42.0296 35.7336 44.787 33.7047 48.1485 C 31.2654 52.292 28.3967 54.395 25.1811 54.395 Z" fill="#98bf00"/></g><g><path d="M 78.0028 60.4279 L 76.8514 60.4279 L 69.631 43.5967 L 62.4339 60.4279 L 61.2816 60.4279 L 52.4757 35.1673 L 57.1445 35.1673 L 62.4106 51.4 L 68.9644 35.1673 L 70.1158 35.1673 L 76.8739 51.4 L 82.5321 35.1673 L 86.8324 35.1673 L 78.0028 60.4279 Z" fill="#ffffff"/><path d="M 99.1527 38.4701 C 97.2038 38.4701 95.5706 39.1012 94.2505 40.363 C 92.9961 41.5644 92.2829 43.0538 92.1143 44.8403 L 105.7526 44.8403 C 105.7526 43.0724 105.1968 41.5925 104.0969 40.4088 C 102.8844 39.1152 101.2379 38.4701 99.1527 38.4701 ZM 109.7543 48.0274 L 91.9976 48.0274 C 91.9976 50.922 92.7855 53.1443 94.3669 54.7028 C 95.7621 56.0575 97.5573 56.7355 99.7492 56.7355 C 102.2502 56.7355 104.3349 56.0021 106.0043 54.5404 L 107.8427 57.7052 C 107.1707 58.3827 106.1351 58.9665 104.7403 59.4578 C 102.9912 60.1035 101.0464 60.4279 98.896 60.4279 C 95.799 60.4279 93.1735 59.3751 91.0094 57.2635 C 88.6027 54.9399 87.399 51.8123 87.399 47.8882 C 87.399 43.8099 88.6301 40.5396 91.102 38.0757 C 93.3085 35.8769 95.9249 34.7726 98.943 34.7726 C 102.4545 34.7726 105.2068 35.7652 107.1989 37.7512 C 109.1341 39.6625 110.0999 42.1953 110.0999 45.3502 C 110.0999 46.3203 109.9832 47.2102 109.7543 48.0274 Z" fill="#ffffff"/><path d="M 127.7715 47.8184 C 126.3907 47.5118 125.4254 47.3589 124.875 47.3589 C 122.6686 47.3589 120.8638 47.9299 119.4694 49.0661 C 118.075 50.2076 117.3796 51.5533 117.3796 53.1072 C 117.3796 55.677 118.8862 56.9627 121.9088 56.9627 C 124.1149 56.9627 126.0692 55.9092 127.7715 53.7988 L 127.7715 47.8184 ZM 128.1864 57.1251 C 126.4377 59.3284 122.6308 60.4279 120.1598 60.4279 C 118.2283 60.4279 116.5539 59.7226 115.1362 58.3125 C 113.7186 56.9061 113.0095 55.1527 113.0095 53.0609 C 113.0095 50.551 114.1007 48.4307 116.2835 46.7004 C 118.4709 44.9697 121.256 44.1024 124.6461 44.1024 C 125.5654 44.1024 126.6059 44.302 127.7715 44.7007 C 127.7715 40.7018 125.9945 38.6976 122.4355 38.6976 C 119.707 38.6976 117.6081 39.4396 116.1339 40.9147 L 114.2972 37.2457 C 115.1222 36.5679 116.2698 35.9881 117.734 35.5007 C 119.199 35.0184 120.598 34.7726 121.9317 34.7726 C 125.5044 34.7726 128.0975 35.5892 129.717 37.2224 C 131.3349 38.8552 132.142 41.4485 132.142 45.0023 L 132.142 53.8686 C 132.142 56.0393 132.7858 57.4862 134.0726 58.21 L 134.0726 60.4047 C 132.2953 60.4047 130.9665 60.1498 130.0855 59.6441 C 129.2036 59.1339 128.5698 58.2939 128.1864 57.1251 Z" fill="#ffffff"/><path d="M 146.6218 60.4279 L 145.47 60.4279 L 134.9146 35.1673 L 139.7001 35.1673 L 146.2069 52.4854 L 152.8536 35.1673 L 157.429 35.1673 L 146.6218 60.4279 Z" fill="#ffffff"/><path d="M 170.1045 38.4701 C 168.1547 38.4701 166.5223 39.1012 165.2072 40.363 C 163.947 41.5644 163.2338 43.0538 163.0664 44.8403 L 176.7043 44.8403 C 176.7043 43.0724 176.1531 41.5925 175.0482 40.4088 C 173.8362 39.1152 172.1896 38.4701 170.1045 38.4701 ZM 180.706 48.0274 L 162.9497 48.0274 C 162.9497 50.922 163.7422 53.1443 165.3185 54.7028 C 166.7134 56.0575 168.509 56.7355 170.7014 56.7355 C 173.2019 56.7355 175.2866 56.0021 176.956 54.5404 L 178.7986 57.7052 C 178.1219 58.3827 177.0869 58.9665 175.692 59.4578 C 173.9429 60.1035 171.9981 60.4279 169.8519 60.4279 C 166.7507 60.4279 164.1248 59.3751 161.9607 57.2635 C 159.5536 54.9399 158.3503 51.8123 158.3503 47.8882 C 158.3503 43.8099 159.5868 40.5396 162.0537 38.0757 C 164.2602 35.8769 166.8766 34.7726 169.8947 34.7726 C 173.4063 34.7726 176.1585 35.7652 178.1544 37.7512 C 180.0858 39.6625 181.0511 42.1953 181.0511 45.3502 C 181.0511 46.3203 180.9341 47.2102 180.706 48.0274 Z" fill="#ffffff"/><path d="M 198.1861 39.4629 C 197.2341 38.7998 196.2783 38.4701 195.3126 38.4701 C 193.7599 38.4701 192.407 39.1842 191.2498 40.6183 C 190.0934 42.0474 189.5152 43.7728 189.5152 45.7865 L 189.5152 59.9639 L 185.1438 59.9639 L 185.1438 35.2366 L 189.5152 35.2366 L 189.5152 39.1842 C 191.1102 36.2432 193.4799 34.7726 196.6235 34.7726 C 197.4023 34.7726 198.5304 34.9116 200 35.1899 L 198.1861 39.4629 Z" fill="#ffffff"/></g><g><path d="M 4.5747 69.1413 L 4.5747 80.1036 L 3.6725 80.1036 L 3.6725 69.1413 L 0.1298 69.1413 L 0.1298 68.3489 L 8.1332 68.3489 L 8.1332 69.1413 L 4.5747 69.1413 Z" fill="#adb5b9"/><path d="M 15.6049 80.1036 L 15.6049 75.168 C 15.6049 73.6319 14.8194 72.7899 13.3824 72.7899 C 11.9457 72.7899 11.1097 73.6649 11.1097 75.168 L 11.1097 80.1036 L 10.2578 80.1036 L 10.2578 68.3489 L 11.1097 68.3489 L 11.1097 73.0882 C 11.7114 72.3949 12.5135 72.0474 13.4819 72.0474 C 15.321 72.0474 16.4572 73.1861 16.4572 75.0184 L 16.4572 80.1036 L 15.6049 80.1036 Z" fill="#adb5b9"/><path d="M 19.9841 76.3062 C 19.9841 78.3208 20.9038 79.4433 22.6085 79.4433 C 23.5607 79.4433 24.1453 79.1628 24.8305 78.4856 L 25.4656 78.981 C 24.6473 79.79 23.8945 80.2027 22.5578 80.2027 C 20.3351 80.2027 19.1316 78.7831 19.1316 76.1248 C 19.1316 73.5658 20.3351 72.0474 22.3572 72.0474 C 24.3632 72.0474 25.5823 73.4997 25.5823 75.9266 L 25.5823 76.3062 L 19.9841 76.3062 ZM 24.4461 74.1272 C 24.0965 73.3018 23.277 72.7899 22.3572 72.7899 C 21.4379 72.7899 20.6193 73.3018 20.2683 74.1272 C 20.0676 74.623 20.0172 74.8705 19.9841 75.6295 L 24.7302 75.6295 C 24.697 74.8705 24.6473 74.623 24.4461 74.1272 Z" fill="#adb5b9"/><path d="M 35.076 80.2027 C 33.6715 80.2027 32.6362 79.8387 31.8179 79.0628 L 32.4021 78.4856 C 33.0372 79.145 33.8889 79.4598 35.043 79.4598 C 36.6133 79.4598 37.4655 78.9149 37.4655 77.8419 C 37.4655 77.0164 36.9808 76.6041 35.9282 76.505 L 34.5915 76.3893 C 32.9703 76.2566 32.1678 75.5473 32.1678 74.309 C 32.1678 72.9386 33.3047 72.0474 35.0588 72.0474 C 36.162 72.0474 37.1816 72.3614 37.8831 72.8882 L 37.3151 73.4497 C 36.6962 73.0039 35.9448 72.7729 35.0588 72.7729 C 33.7386 72.7729 33.0036 73.3348 33.0036 74.309 C 33.0036 75.1345 33.5049 75.5473 34.6403 75.646 L 35.9448 75.7613 C 37.2815 75.8774 38.3012 76.2897 38.3012 77.8419 C 38.3012 79.2941 37.0476 80.2027 35.076 80.2027 Z" fill="#adb5b9"/><path d="M 42.8304 80.1036 C 41.5602 80.1036 40.8921 79.2281 40.8921 78.0233 L 40.8921 72.7729 L 39.7893 72.7729 L 39.7893 72.1462 L 40.8921 72.1462 L 40.8921 69.6044 L 41.7447 69.6044 L 41.7447 72.1462 L 43.5656 72.1462 L 43.5656 72.7729 L 41.7447 72.7729 L 41.7447 78.0398 C 41.7447 78.8661 42.1289 79.3603 42.981 79.3603 L 43.5656 79.3603 L 43.5656 80.1036 L 42.8304 80.1036 Z" fill="#adb5b9"/><path d="M 50.6519 73.417 C 50.1673 72.9386 49.7996 72.7899 49.1306 72.7899 C 47.7443 72.7899 46.9752 73.9124 46.9752 75.201 L 46.9752 80.1036 L 46.1231 80.1036 L 46.1231 72.1462 L 46.9752 72.1462 L 46.9752 73.2034 C 47.4431 72.4598 48.3792 72.0474 49.3316 72.0474 C 50.1003 72.0474 50.7019 72.2449 51.2704 72.806 L 50.6519 73.417 Z" fill="#adb5b9"/><path d="M 57.5205 80.1036 L 57.5205 79.3111 C 56.8353 79.9874 56.2004 80.2027 55.064 80.2027 C 53.8777 80.2027 53.2091 80.0056 52.6908 79.4764 C 52.3235 79.0967 52.1063 78.5183 52.1063 77.9241 C 52.1063 76.4719 53.1597 75.6295 54.914 75.6295 L 57.5205 75.6295 L 57.5205 74.7383 C 57.5205 73.467 56.8857 72.7899 55.2476 72.7899 C 54.1115 72.7899 53.5266 73.0708 53.0253 73.7971 L 52.4075 73.2683 C 53.0922 72.3276 53.9443 72.0474 55.2476 72.0474 C 57.3699 72.0474 58.3732 72.9886 58.3732 74.6549 L 58.3732 80.1036 L 57.5205 80.1036 ZM 57.5205 76.3062 L 55.0135 76.3062 C 53.6272 76.3062 52.9591 76.8512 52.9591 77.9072 C 52.9591 78.9649 53.6106 79.4598 55.064 79.4598 C 55.7992 79.4598 56.5016 79.3937 57.0689 78.8496 C 57.3699 78.5678 57.5205 78.0729 57.5205 77.33 L 57.5205 76.3062 Z" fill="#adb5b9"/><path d="M 63.6879 80.1036 C 62.4177 80.1036 61.7487 79.2281 61.7487 78.0233 L 61.7487 72.7729 L 60.6463 72.7729 L 60.6463 72.1462 L 61.7487 72.1462 L 61.7487 69.6044 L 62.6021 69.6044 L 62.6021 72.1462 L 64.4235 72.1462 L 64.4235 72.7729 L 62.6021 72.7729 L 62.6021 78.0398 C 62.6021 78.8661 62.9855 79.3603 63.8385 79.3603 L 64.4235 79.3603 L 64.4235 80.1036 L 63.6879 80.1036 Z" fill="#adb5b9"/><path d="M 67.1978 76.3062 C 67.1978 78.3208 68.1168 79.4433 69.8206 79.4433 C 70.7735 79.4433 71.3588 79.1628 72.0435 78.4856 L 72.679 78.981 C 71.8597 79.79 71.1071 80.2027 69.7706 80.2027 C 67.5482 80.2027 66.3455 78.7831 66.3455 76.1248 C 66.3455 73.5658 67.5482 72.0474 69.5704 72.0474 C 71.5756 72.0474 72.7957 73.4997 72.7957 75.9266 L 72.7957 76.3062 L 67.1978 76.3062 ZM 71.6597 74.1272 C 71.3085 73.3018 70.4896 72.7899 69.5704 72.7899 C 68.6505 72.7899 67.8323 73.3018 67.4815 74.1272 C 67.2811 74.623 67.2314 74.8705 67.1978 75.6295 L 71.943 75.6295 C 71.9095 74.8705 71.8597 74.623 71.6597 74.1272 Z" fill="#adb5b9"/><path d="M 78.0442 84 C 76.8407 84 76.2388 83.686 75.3868 82.9427 L 75.9551 82.3821 C 76.5902 82.9427 77.0247 83.2563 78.0442 83.2563 C 79.7312 83.2563 80.4843 82.0673 80.4843 80.5002 L 80.4843 79.0802 C 79.7821 80.0056 78.9972 80.2027 78.0942 80.2027 C 77.2587 80.2027 76.5395 79.9226 76.1222 79.5098 C 75.3038 78.7005 75.0863 77.3792 75.0863 76.1248 C 75.0863 74.8705 75.3038 73.5492 76.1222 72.7407 C 76.5395 72.3276 77.2587 72.0474 78.0942 72.0474 C 78.9972 72.0474 79.7821 72.2449 80.4843 73.17 L 80.4843 72.1462 L 81.3354 72.1462 L 81.3354 80.5493 C 81.3354 82.5465 80.1331 84 78.0442 84 ZM 78.2109 72.7899 C 76.2388 72.7899 75.9389 74.4743 75.9389 76.1248 C 75.9389 77.7758 76.2388 79.4598 78.2109 79.4598 C 80.1827 79.4598 80.4843 77.7758 80.4843 76.1248 C 80.4843 74.4743 80.1827 72.7899 78.2109 72.7899 Z" fill="#adb5b9"/><path d="M 84.4785 69.3888 L 84.4785 68.3489 L 85.5315 68.3489 L 85.5315 69.3888 L 84.4785 69.3888 ZM 84.579 80.1036 L 84.579 72.1462 L 85.4314 72.1462 L 85.4314 80.1036 L 84.579 80.1036 Z" fill="#adb5b9"/><path d="M 91.7489 80.2027 C 89.5599 80.2027 88.2062 78.6505 88.2062 76.1248 C 88.2062 73.5992 89.5599 72.0474 91.7489 72.0474 C 92.852 72.0474 93.5361 72.3276 94.405 73.2683 L 93.8204 73.7971 C 93.1357 73.0374 92.6011 72.7899 91.7489 72.7899 C 90.8456 72.7899 90.0935 73.1534 89.6096 73.8463 C 89.209 74.4243 89.058 75.0519 89.058 76.1248 C 89.058 77.1987 89.209 77.8254 89.6096 78.403 C 90.0935 79.0967 90.8456 79.4598 91.7489 79.4598 C 92.6011 79.4598 93.1357 79.212 93.8204 78.4526 L 94.405 78.981 C 93.5361 79.9226 92.852 80.2027 91.7489 80.2027 Z" fill="#adb5b9"/><path d="M 106.1879 79.3276 C 105.6201 79.8891 104.8512 80.2027 103.9491 80.2027 C 103.0469 80.2027 102.278 79.8891 101.7098 79.3276 C 100.8578 78.4856 100.7073 77.2631 100.7073 76.1248 C 100.7073 74.9862 100.8578 73.7637 101.7098 72.9221 C 102.278 72.3614 103.0469 72.0474 103.9491 72.0474 C 104.8512 72.0474 105.6201 72.3614 106.1879 72.9221 C 107.0398 73.7637 107.1906 74.9862 107.1906 76.1248 C 107.1906 77.2631 107.0398 78.4856 106.1879 79.3276 ZM 105.6201 73.467 C 105.186 73.0374 104.6012 72.7899 103.9491 72.7899 C 103.2973 72.7899 102.7125 73.0374 102.278 73.467 C 101.6093 74.1272 101.5592 75.201 101.5592 76.1248 C 101.5592 77.0495 101.6093 78.1233 102.278 78.7831 C 102.7125 79.212 103.2973 79.4598 103.9491 79.4598 C 104.6012 79.4598 105.186 79.212 105.6201 78.7831 C 106.2888 78.1233 106.3391 77.0495 106.3391 76.1248 C 106.3391 75.201 106.2888 74.1272 105.6201 73.467 Z" fill="#adb5b9"/><path d="M 115.3136 80.1036 L 115.3136 75.168 C 115.3136 73.6319 114.5273 72.7899 113.091 72.7899 C 111.6534 72.7899 110.818 73.6649 110.818 75.168 L 110.818 80.1036 L 109.9653 80.1036 L 109.9653 72.1462 L 110.818 72.1462 L 110.818 73.0882 C 111.4191 72.3949 112.2212 72.0474 113.1907 72.0474 C 114.0937 72.0474 114.8127 72.311 115.3298 72.806 C 115.8648 73.3187 116.1659 74.0773 116.1659 75.0184 L 116.1659 80.1036 L 115.3136 80.1036 Z" fill="#adb5b9"/><path d="M 121.2135 80.1036 C 119.9101 80.1036 119.275 79.2785 119.275 78.0398 L 119.275 68.3489 L 120.1273 68.3489 L 120.1273 78.0233 C 120.1273 78.9149 120.411 79.3603 121.3643 79.3603 L 121.9487 79.3603 L 121.9487 80.1036 L 121.2135 80.1036 Z" fill="#adb5b9"/><path d="M 124.004 69.3888 L 124.004 68.3489 L 125.0562 68.3489 L 125.0562 69.3888 L 124.004 69.3888 ZM 124.1045 80.1036 L 124.1045 72.1462 L 124.9565 72.1462 L 124.9565 80.1036 L 124.1045 80.1036 Z" fill="#adb5b9"/><path d="M 133.5468 80.1036 L 133.5468 75.168 C 133.5468 73.6319 132.7605 72.7899 131.3241 72.7899 C 129.8869 72.7899 129.0516 73.6649 129.0516 75.168 L 129.0516 80.1036 L 128.1989 80.1036 L 128.1989 72.1462 L 129.0516 72.1462 L 129.0516 73.0882 C 129.6531 72.3949 130.4547 72.0474 131.4238 72.0474 C 132.3272 72.0474 133.0454 72.311 133.563 72.806 C 134.0988 73.3187 134.3991 74.0773 134.3991 75.0184 L 134.3991 80.1036 L 133.5468 80.1036 Z" fill="#adb5b9"/><path d="M 137.9264 76.3062 C 137.9264 78.3208 138.8448 79.4433 140.5491 79.4433 C 141.5023 79.4433 142.0876 79.1628 142.7718 78.4856 L 143.4069 78.981 C 142.589 79.79 141.8355 80.2027 140.4984 80.2027 C 138.2766 80.2027 137.0737 78.7831 137.0737 76.1248 C 137.0737 73.5658 138.2766 72.0474 140.2999 72.0474 C 142.3044 72.0474 143.524 73.4997 143.524 75.9266 L 143.524 76.3062 L 137.9264 76.3062 ZM 142.3879 74.1272 C 142.037 73.3018 141.2183 72.7899 140.2999 72.7899 C 139.3799 72.7899 138.5616 73.3018 138.2101 74.1272 C 138.0099 74.623 137.9597 74.8705 137.9264 75.6295 L 142.6721 75.6295 C 142.638 74.8705 142.589 74.623 142.3879 74.1272 Z" fill="#adb5b9"/><path d="M 155.2736 80.1036 L 155.2736 79.3111 C 154.5891 79.9874 153.9544 80.2027 152.8171 80.2027 C 151.6304 80.2027 150.962 80.0056 150.4441 79.4764 C 150.076 79.0967 149.8588 78.5183 149.8588 77.9241 C 149.8588 76.4719 150.9118 75.6295 152.6671 75.6295 L 155.2736 75.6295 L 155.2736 74.7383 C 155.2736 73.467 154.6385 72.7899 153.0011 72.7899 C 151.8643 72.7899 151.2798 73.0708 150.7776 73.7971 L 150.1604 73.2683 C 150.8453 72.3276 151.6973 72.0474 153.0011 72.0474 C 155.1233 72.0474 156.1259 72.9886 156.1259 74.6549 L 156.1259 80.1036 L 155.2736 80.1036 ZM 155.2736 76.3062 L 152.7668 76.3062 C 151.3799 76.3062 150.7116 76.8512 150.7116 77.9072 C 150.7116 78.9649 151.3633 79.4598 152.8171 79.4598 C 153.5527 79.4598 154.2543 79.3937 154.8225 78.8496 C 155.1233 78.5678 155.2736 78.0729 155.2736 77.33 L 155.2736 76.3062 Z" fill="#adb5b9"/><path d="M 161.7912 84 C 160.5883 84 159.9864 83.686 159.1345 82.9427 L 159.7023 82.3821 C 160.3387 82.9427 160.7723 83.2563 161.7912 83.2563 C 163.4789 83.2563 164.2315 82.0673 164.2315 80.5002 L 164.2315 79.0802 C 163.5299 80.0056 162.7445 80.2027 161.8419 80.2027 C 161.0061 80.2027 160.2876 79.9226 159.8701 79.5098 C 159.0506 78.7005 158.8333 77.3792 158.8333 76.1248 C 158.8333 74.8705 159.0506 73.5492 159.8701 72.7407 C 160.2876 72.3276 161.0061 72.0474 161.8419 72.0474 C 162.7445 72.0474 163.5299 72.2449 164.2315 73.17 L 164.2315 72.1462 L 165.0839 72.1462 L 165.0839 80.5493 C 165.0839 82.5465 163.8813 84 161.7912 84 ZM 161.9582 72.7899 C 159.9864 72.7899 159.6865 74.4743 159.6865 76.1248 C 159.6865 77.7758 159.9864 79.4598 161.9582 79.4598 C 163.9308 79.4598 164.2315 77.7758 164.2315 76.1248 C 164.2315 74.4743 163.9308 72.7899 161.9582 72.7899 Z" fill="#adb5b9"/><path d="M 168.7109 76.3062 C 168.7109 78.3208 169.6297 79.4433 171.3348 79.4433 C 172.2872 79.4433 172.8717 79.1628 173.5566 78.4856 L 174.1913 78.981 C 173.373 79.79 172.6212 80.2027 171.2837 80.2027 C 169.0614 80.2027 167.8577 78.7831 167.8577 76.1248 C 167.8577 73.5658 169.0614 72.0474 171.0835 72.0474 C 173.0893 72.0474 174.3093 73.4997 174.3093 75.9266 L 174.3093 76.3062 L 168.7109 76.3062 ZM 173.1728 74.1272 C 172.8226 73.3018 172.0035 72.7899 171.0835 72.7899 C 170.1643 72.7899 169.346 73.3018 168.9946 74.1272 C 168.7939 74.623 168.745 74.8705 168.7109 75.6295 L 173.4569 75.6295 C 173.4237 74.8705 173.373 74.623 173.1728 74.1272 Z" fill="#adb5b9"/><path d="M 182.4153 80.1036 L 182.4153 75.168 C 182.4153 73.6319 181.6298 72.7899 180.1922 72.7899 C 178.7554 72.7899 177.9201 73.6649 177.9201 75.168 L 177.9201 80.1036 L 177.0674 80.1036 L 177.0674 72.1462 L 177.9201 72.1462 L 177.9201 73.0882 C 178.5211 72.3949 179.3236 72.0474 180.2923 72.0474 C 181.1957 72.0474 181.9135 72.311 182.4319 72.806 C 182.9669 73.3187 183.2672 74.0773 183.2672 75.0184 L 183.2672 80.1036 L 182.4153 80.1036 Z" fill="#adb5b9"/><path d="M 189.4853 80.2027 C 187.2959 80.2027 185.9426 78.6505 185.9426 76.1248 C 185.9426 73.5992 187.2959 72.0474 189.4853 72.0474 C 190.5881 72.0474 191.273 72.3276 192.142 73.2683 L 191.5567 73.7971 C 190.8727 73.0374 190.3368 72.7899 189.4853 72.7899 C 188.5831 72.7899 187.83 73.1534 187.3457 73.8463 C 186.9449 74.4243 186.7945 75.0519 186.7945 76.1248 C 186.7945 77.1987 186.9449 77.8254 187.3457 78.403 C 187.83 79.0967 188.5831 79.4598 189.4853 79.4598 C 190.3368 79.4598 190.8727 79.212 191.5567 78.4526 L 192.142 78.981 C 191.273 79.9226 190.5881 80.2027 189.4853 80.2027 Z" fill="#adb5b9"/><path d="M 196.2368 82.2677 C 196.0868 82.6953 195.9198 82.9927 195.6855 83.1915 C 195.2847 83.5699 194.6999 83.7025 194.1649 83.7025 L 193.7636 83.7025 L 193.7636 82.9601 L 194.0809 82.9601 C 194.9998 82.9601 195.2515 82.6626 195.5518 81.8702 L 196.2031 80.1036 L 193.2627 72.1462 L 194.1985 72.1462 L 196.6218 79.1128 L 199.0446 72.1462 L 199.9801 72.1462 L 196.2368 82.2677 Z" fill="#adb5b9"/></g></g></g></svg>