<?xml version="1.0" encoding="UTF-8" standalone="no"?>
<svg width="929px" height="116px" viewBox="0 0 929 116" version="1.1" xmlns="http://www.w3.org/2000/svg" xmlns:xlink="http://www.w3.org/1999/xlink" xmlns:sketch="http://www.bohemiancoding.com/sketch/ns">
    <!-- Generator: Sketch 3.3.2 (12043) - http://www.bohemiancoding.com/sketch -->
    <title>Group</title>
    <desc>Created with Sketch.</desc>
    <defs></defs>
    <g id="Page-1" stroke="none" stroke-width="1" fill="none" fill-rule="evenodd" sketch:type="MSPage">
        <g id="Artboard-1" sketch:type="MSArtboardGroup">
            <g id="Group" sketch:type="MSLayerGroup">
                <path d="M0.579,2.067 L22.356,2.067 L46.493,40.898 L70.631,2.067 L92.408,2.067 L92.408,93.896 L72.336,93.896 L72.336,33.945 L46.493,73.169 L45.969,73.169 L20.387,34.338 L20.387,93.896 L0.579,93.896 L0.579,2.067" id="Fill-1" fill="#1A1918" sketch:type="MSShapeGroup"></path>
                <path d="M158.53,23.581 L179.258,23.581 L152.233,95.602 C146.855,109.9 141.083,115.279 129.146,115.279 C121.931,115.279 116.552,113.443 111.436,110.425 L118.126,95.995 C120.75,97.57 124.03,98.75 126.653,98.75 C130.063,98.75 131.9,97.701 133.606,94.158 L106.057,23.581 L127.178,23.581 L143.183,71.464 L158.53,23.581" id="Fill-2" fill="#1A1918" sketch:type="MSShapeGroup"></path>
                <path d="M195.077,2.067 L205.572,2.067 L239.024,52.18 L272.476,2.067 L282.971,2.067 L282.971,93.896 L272.607,93.896 L272.607,19.515 L239.155,68.709 L238.631,68.709 L205.179,19.646 L205.179,93.896 L195.077,93.896 L195.077,2.067" id="Fill-3" fill="#5FC7D0" sketch:type="MSShapeGroup"></path>
                <path d="M308.165,26.074 L318.266,26.074 L318.266,93.896 L308.165,93.896 L308.165,26.074 Z M307.509,0.1 L319.053,0.1 L319.053,11.25 L307.509,11.25 L307.509,0.1 Z" id="Fill-4" fill="#5FC7D0" sketch:type="MSShapeGroup"></path>
                <path d="M337.55,60.313 L337.55,60.051 C337.55,40.898 352.505,24.631 372.314,24.631 C385.169,24.631 393.172,30.01 399.469,36.701 L392.778,43.784 C387.399,38.143 381.365,33.551 372.183,33.551 C358.409,33.551 347.914,45.227 347.914,59.789 L347.914,60.051 C347.914,74.744 358.671,86.419 372.838,86.419 C381.497,86.419 388.187,82.09 393.565,76.317 L399.993,82.352 C393.172,89.96 385.039,95.471 372.314,95.471 C352.505,95.471 337.55,79.334 337.55,60.313" id="Fill-5" fill="#5FC7D0" sketch:type="MSShapeGroup"></path>
                <path d="M416.658,26.074 L426.759,26.074 L426.759,43.784 C431.744,32.502 441.583,24.369 454.439,24.893 L454.439,35.782 L453.652,35.782 C438.828,35.782 426.759,46.408 426.759,66.872 L426.759,93.896 L416.658,93.896 L416.658,26.074" id="Fill-6" fill="#5FC7D0" sketch:type="MSShapeGroup"></path>
                <path d="M523.052,60.313 L523.052,60.051 C523.052,45.489 512.164,33.551 497.865,33.551 C483.172,33.551 473.072,45.489 473.072,59.789 L473.072,60.051 C473.072,74.612 483.829,86.419 498.128,86.419 C512.82,86.419 523.052,74.612 523.052,60.313 L523.052,60.313 Z M462.708,60.313 L462.708,60.051 C462.708,40.898 477.663,24.631 498.128,24.631 C518.461,24.631 533.416,40.635 533.416,59.789 L533.416,60.051 C533.416,79.204 518.33,95.471 497.865,95.471 C477.532,95.471 462.708,79.466 462.708,60.313 L462.708,60.313 Z" id="Fill-7" fill="#5FC7D0" sketch:type="MSShapeGroup"></path>
                <path d="M548.854,3.918 L569.056,3.918 L569.056,95.747 L548.854,95.747 L548.854,3.918 Z" id="Fill-8" fill="#1A1918" sketch:type="MSShapeGroup"></path>
                <path d="M589.917,25.433 L609.856,25.433 L609.856,35.402 C614.448,29.5 620.351,24.121 630.453,24.121 C645.538,24.121 654.328,34.091 654.328,50.227 L654.328,95.747 L634.388,95.747 L634.388,56.524 C634.388,47.079 629.929,42.225 622.317,42.225 C614.71,42.225 609.856,47.079 609.856,56.524 L609.856,95.747 L589.917,95.747 L589.917,25.433" id="Fill-9" fill="#1A1918" sketch:type="MSShapeGroup"></path>
                <path d="M662.728,25.433 L683.849,25.433 L699.59,72.528 L715.463,25.433 L736.19,25.433 L708.51,96.271 L690.407,96.271 L662.728,25.433" id="Fill-10" fill="#1A1918" sketch:type="MSShapeGroup"></path>
                <path d="M789.979,55.08 C788.798,46.16 783.551,40.125 775.155,40.125 C766.892,40.125 761.513,46.029 759.938,55.08 L789.979,55.08 L789.979,55.08 Z M740.392,60.984 L740.392,60.722 C740.392,40.651 754.69,24.121 775.155,24.121 C798.638,24.121 809.395,42.355 809.395,62.295 C809.395,63.87 809.263,65.706 809.132,67.543 L760.2,67.543 C762.167,76.595 768.466,81.317 777.386,81.317 C784.075,81.317 788.93,79.218 794.439,74.102 L805.853,84.203 C799.294,92.337 789.848,97.322 777.122,97.322 C756.003,97.322 740.392,82.498 740.392,60.984 L740.392,60.984 Z" id="Fill-11" fill="#1A1918" sketch:type="MSShapeGroup"></path>
                <path d="M818.712,86.433 L827.24,73.315 C834.848,78.825 842.849,81.711 849.41,81.711 C855.183,81.711 857.806,79.612 857.806,76.464 L857.806,76.201 C857.806,71.872 850.984,70.429 843.243,68.068 C833.405,65.182 822.254,60.59 822.254,46.947 L822.254,46.685 C822.254,32.386 833.799,24.383 847.966,24.383 C856.888,24.383 866.594,27.401 874.203,32.517 L866.594,46.291 C859.641,42.225 852.689,39.732 847.573,39.732 C842.719,39.732 840.228,41.831 840.228,44.585 L840.228,44.849 C840.228,48.783 846.917,50.62 854.524,53.244 C864.364,56.524 875.777,61.246 875.777,74.102 L875.777,74.365 C875.777,89.975 864.103,97.059 848.884,97.059 C839.046,97.059 828.026,93.779 818.712,86.433" id="Fill-12" fill="#1A1918" sketch:type="MSShapeGroup"></path>
                <path d="M892.049,75.807 L892.049,42.486 L883.653,42.486 L883.653,25.433 L892.049,25.433 L892.049,7.461 L911.989,7.461 L911.989,25.433 L928.517,25.433 L928.517,42.486 L911.989,42.486 L911.989,72.528 C911.989,77.119 913.956,79.349 918.418,79.349 C922.09,79.349 925.369,78.432 928.257,76.857 L928.257,92.861 C924.059,95.354 919.204,96.928 912.514,96.928 C900.314,96.928 892.049,92.074 892.049,75.807" id="Fill-13" fill="#1A1918" sketch:type="MSShapeGroup"></path>
            </g>
        </g>
    </g>
</svg>