<?xml version="1.0" encoding="utf-8"?>
<!-- Generator: Adobe Illustrator 15.0.1, SVG Export Plug-In . SVG Version: 6.00 Build 0)  -->
<!DOCTYPE svg PUBLIC "-//W3C//DTD SVG 1.1//EN" "http://www.w3.org/Graphics/SVG/1.1/DTD/svg11.dtd">
<svg version="1.1"
	 id="svg3157" inkscape:version="0.48.0 r9654" sodipodi:docname="Nouveau document 2" xmlns:dc="http://purl.org/dc/elements/1.1/" xmlns:inkscape="http://www.inkscape.org/namespaces/inkscape" xmlns:cc="http://creativecommons.org/ns#" xmlns:rdf="http://www.w3.org/1999/02/22-rdf-syntax-ns#" xmlns:svg="http://www.w3.org/2000/svg" xmlns:sodipodi="http://sodipodi.sourceforge.net/DTD/sodipodi-0.dtd"
	 xmlns="http://www.w3.org/2000/svg" xmlns:xlink="http://www.w3.org/1999/xlink" x="0px" y="0px" width="130.214px"
	 height="71.346px" viewBox="100.879 296.897 130.214 71.346" enable-background="new 100.879 296.897 130.214 71.346"
	 xml:space="preserve">
<sodipodi:namedview  id="base" inkscape:pageopacity="0.0" inkscape:current-layer="layer1" inkscape:pageshadow="2" inkscape:window-x="-8" inkscape:window-width="1280" inkscape:window-height="738" inkscape:window-y="-8" pagecolor="#ffffff" inkscape:zoom="0.35" inkscape:cx="375" borderopacity="1.0" showgrid="false" inkscape:cy="520" bordercolor="#666666" inkscape:window-maximized="1" inkscape:document-units="px">
	</sodipodi:namedview>
<g>
	<g id="g3">
		<g>
			<defs>
				<path id="SVGID_1_" d="M173.354,303.512c-8.533,18.611-28.445,37.67-44.483,42.521c-16.075,4.869-22.102-6.346-13.482-25.012
					l-8.501,2.574c-4.047,8.754-5.979,16.436-6.008,22.662v0.266c0.061,13.863,9.684,20.387,26.574,15.262
					c24.479-7.426,54.86-36.523,67.816-64.889L173.354,303.512z"/>
			</defs>
			<clipPath id="SVGID_2_">
				<use xlink:href="#SVGID_1_"  overflow="visible"/>
			</clipPath>
			
				<linearGradient id="polygon24_1_" gradientUnits="userSpaceOnUse" x1="-12.7341" y1="-15.4282" x2="-11.7336" y2="-15.4282" gradientTransform="matrix(89.823 -62.8947 62.8947 89.823 2220.4734 946.0237)">
				<stop  offset="0" style="stop-color:#A40D11"/>
				<stop  offset="0.0263" style="stop-color:#A60E13"/>
				<stop  offset="0.3455" style="stop-color:#C51521"/>
				<stop  offset="0.5977" style="stop-color:#D81829"/>
				<stop  offset="0.75" style="stop-color:#DF192B"/>
				<stop  offset="1" style="stop-color:#DF192B"/>
			</linearGradient>
			<polygon id="polygon24" clip-path="url(#SVGID_2_)" fill="url(#polygon24_1_)" points="164.215,252.549 228.165,343.877 
				131.933,411.262 67.984,319.93 			"/>
		</g>
	</g>
	<g id="g26">
		<g>
			<defs>
				<path id="SVGID_3_" d="M119.228,319.858c-4.392,9.52-1.326,15.23,6.861,12.756c8.191-2.473,18.355-12.189,22.717-21.688
					L119.228,319.858z"/>
			</defs>
			<clipPath id="SVGID_4_">
				<use xlink:href="#SVGID_3_"  overflow="visible"/>
			</clipPath>
			
				<linearGradient id="polygon47_1_" gradientUnits="userSpaceOnUse" x1="-14.4685" y1="-29.2446" x2="-13.4681" y2="-29.2446" gradientTransform="matrix(30.0433 -21.0365 21.0365 30.0433 1168.7573 906.3344)">
				<stop  offset="0" style="stop-color:#A40D11"/>
				<stop  offset="0.0263" style="stop-color:#A60E13"/>
				<stop  offset="0.3455" style="stop-color:#C51521"/>
				<stop  offset="0.5977" style="stop-color:#D81829"/>
				<stop  offset="0.75" style="stop-color:#DF192B"/>
				<stop  offset="1" style="stop-color:#DF192B"/>
			</linearGradient>
			<polygon id="polygon47" clip-path="url(#SVGID_4_)" fill="url(#polygon47_1_)" points="137.63,294.967 160.157,327.141 
				126.013,351.051 103.485,318.877 			"/>
		</g>
	</g>
	<path id="path57_1_" inkscape:connector-curvature="0" fill="#58595B" d="M186.386,363.298c-0.802,0-1.689-0.141-2.16-0.277v5.223
		h-3.792v-17.166c1.117-0.496,3.23-0.92,5.483-0.92c4.84,0,7.471,2.459,7.471,6.576
		C193.388,360.659,190.972,363.298,186.386,363.298 M185.969,352.659c-0.688,0-1.41,0.107-1.742,0.256v7.688
		c0.297,0.129,1.104,0.238,1.773,0.238c2.356,0,3.586-1.691,3.586-4.107C189.586,354.161,188.3,352.659,185.969,352.659
		 M202.067,363.444c-4.352,0-6.774-2.854-6.774-6.662c0-3.799,2.424-6.625,6.774-6.625c4.359,0,6.778,2.826,6.778,6.625
		C208.845,360.591,206.427,363.444,202.067,363.444 M202.067,352.679c-1.999,0-2.989,1.535-2.989,4.086
		c0,2.543,0.99,4.055,2.989,4.055c2.018,0,3.007-1.512,3.007-4.055C205.073,354.216,204.084,352.679,202.067,352.679
		 M215.128,363.444c-1.883,0-3.734-0.424-4.854-0.926l1.229-2.447c0.739,0.395,2.422,0.822,3.502,0.822
		c1.376,0,2.251-0.543,2.251-1.395c0-0.939-0.966-1.346-2.311-1.752c-1.896-0.582-4.273-1.342-4.273-3.844
		c0-2.242,2.002-3.748,5.493-3.748c1.93,0,3.481,0.395,4.62,0.92l-1.167,2.195c-0.628-0.34-1.979-0.734-2.979-0.734
		c-1.325,0-2.118,0.566-2.118,1.32c0,0.973,0.982,1.354,2.288,1.754c1.971,0.609,4.395,1.318,4.395,3.889
		C221.202,361.888,219.111,363.444,215.128,363.444 M228.823,363.345c-2.9,0-4.268-1.344-4.268-4.012v-6.492h-1.925v-2.406h1.925
		v-2.836l3.725-0.912v3.748h2.813v2.406h-2.813v6.283c0,1.037,0.76,1.393,1.73,1.393c0.396,0,0.821-0.098,1.081-0.191v2.674
		C230.643,363.181,229.728,363.345,228.823,363.345 M178.011,356.733c0,4.125-2.637,6.588-7.479,6.588
		c-2.258,0-4.367-0.424-5.478-0.928v-17.154h3.779v5.217c0.471-0.143,1.364-0.281,2.155-0.281
		C175.587,350.175,178.011,352.817,178.011,356.733 M174.198,356.733c0-2.41-1.223-4.104-3.586-4.104
		c-0.672,0-1.466,0.115-1.776,0.232v7.691c0.333,0.146,1.06,0.266,1.744,0.266C172.927,360.819,174.198,359.308,174.198,356.733"/>
</g>
</svg>
